<svg width="66" height="60" viewBox="0 0 66 60" fill="none" xmlns="http://www.w3.org/2000/svg">
<g clip-path="url(#clip0_2_160)">
<path d="M32.8125 6C18.0282 6 6 18.0295 6 32.8125C6 47.6187 18.0063 59.625 32.8125 59.625C47.5968 59.625 59.625 47.5968 59.625 32.8125C59.625 18.005 47.62 6 32.8125 6ZM44.9297 34.2305C44.9297 36.627 44.219 38.9698 42.8876 40.9624C41.5561 42.9551 39.6637 44.5082 37.4495 45.4253C35.2354 46.3424 32.7991 46.5824 30.4486 46.1148C28.0981 45.6473 25.939 44.4932 24.2444 42.7986C22.5497 41.104 21.3957 38.9449 20.9281 36.5944C20.4606 34.2439 20.7006 31.8075 21.6177 29.5934C22.5348 27.3793 24.0879 25.4868 26.0806 24.1554C28.0732 22.8239 30.4159 22.1133 32.8125 22.1133H33.3552L30.2614 19.0195L32.8125 16.4672L40.5211 24.1758L32.8125 31.8844L30.2602 29.332L33.8592 25.733C33.5498 25.7227 33.1992 25.7227 32.8125 25.7227C31.1298 25.7227 29.4849 26.2216 28.0858 27.1565C26.6867 28.0913 25.5962 29.4201 24.9523 30.9747C24.3084 32.5293 24.1399 34.2399 24.4682 35.8903C24.7964 37.5406 25.6067 39.0566 26.7966 40.2464C27.9864 41.4362 29.5024 42.2465 31.1527 42.5748C32.8031 42.9031 34.5137 42.7346 36.0683 42.0907C37.6229 41.4467 38.9516 40.3563 39.8865 38.9572C40.8213 37.5581 41.3203 35.9132 41.3203 34.2305V32.4258H44.9297V34.2305Z" fill="#4EFFAD"/>
</g>
<defs>
<clipPath id="clip0_2_160">
<rect width="65.625" height="59.625" fill="white"/>
</clipPath>
</defs>
</svg>
